<svg width="129" height="32" viewBox="0 0 129 32" fill="none" xmlns="http://www.w3.org/2000/svg">
<path d="M18.3741 23.864C18.6515 23.864 18.8648 23.992 19.0141 24.248C19.1848 24.504 19.2701 24.856 19.2701 25.304C19.2701 26.1573 19.0675 26.8187 18.6621 27.288C17.6808 28.4187 16.6675 29.3467 15.6221 30.072C14.5981 30.7973 13.4248 31.16 12.1021 31.16C11.0141 31.16 10.1928 30.8507 9.63813 30.232C9.08346 29.592 8.80613 28.6747 8.80613 27.48C8.80613 26.8827 8.95546 25.816 9.25413 24.28C9.53146 22.936 9.67013 22.008 9.67013 21.496C9.67013 21.1547 9.55279 20.984 9.31813 20.984C9.04079 20.984 8.64613 21.3467 8.13413 22.072C7.62213 22.776 7.11013 23.7147 6.59813 24.888C6.08613 26.0613 5.67013 27.2987 5.35013 28.6C4.94479 30.3067 3.94213 31.16 2.34213 31.16C1.70213 31.16 1.27546 30.936 1.06213 30.488C0.870125 30.0187 0.774125 29.1867 0.774125 27.992C0.774125 27.3093 0.784792 26.7653 0.806125 26.36L0.838125 23.8C0.838125 20.5147 1.16879 17.0907 1.83013 13.528C2.51279 9.96533 3.50479 6.97867 4.80613 4.568C6.12879 2.136 7.70746 0.919998 9.54213 0.919998C10.5235 0.919998 11.3128 1.34667 11.9101 2.2C12.5288 3.032 12.8381 4.12 12.8381 5.464C12.8381 7.61867 12.2088 9.85867 10.9501 12.184C9.69146 14.488 7.64346 17.1867 4.80613 20.28C4.74213 21.3893 4.71013 22.5307 4.71013 23.704C5.41413 21.8907 6.19279 20.4187 7.04613 19.288C7.92079 18.136 8.77413 17.3147 9.60613 16.824C10.4595 16.3333 11.2381 16.088 11.9421 16.088C13.3288 16.088 14.0221 16.7813 14.0221 18.168C14.0221 19 13.7875 20.504 13.3181 22.68C12.9128 24.536 12.7101 25.7627 12.7101 26.36C12.7101 27.2133 13.0195 27.64 13.6381 27.64C14.0648 27.64 14.5661 27.384 15.1421 26.872C15.7395 26.3387 16.5288 25.4853 17.5101 24.312C17.7661 24.0133 18.0541 23.864 18.3741 23.864ZM8.87013 4.088C8.48613 4.088 8.05946 4.64267 7.59013 5.752C7.12079 6.84 6.66213 8.32267 6.21413 10.2C5.78746 12.056 5.43546 14.0827 5.15813 16.28C6.48079 14.7227 7.56879 13.0267 8.42213 11.192C9.29679 9.35733 9.73413 7.69333 9.73413 6.2C9.73413 5.51733 9.65946 4.99467 9.51013 4.632C9.36079 4.26933 9.14746 4.088 8.87013 4.088ZM19.9406 31.16C18.9806 31.16 18.1913 30.7227 17.5726 29.848C16.9753 28.952 16.6766 27.8427 16.6766 26.52C16.6766 24.92 16.7833 23.4587 16.9966 22.136C17.21 20.792 17.562 19.3733 18.0526 17.88C18.266 17.24 18.5646 16.7813 18.9486 16.504C19.3326 16.2267 19.9406 16.088 20.7726 16.088C21.242 16.088 21.562 16.1627 21.7326 16.312C21.9246 16.4613 22.0206 16.6853 22.0206 16.984C22.0206 17.1547 21.9033 17.7307 21.6686 18.712C21.4553 19.5013 21.2846 20.216 21.1566 20.856C20.73 23.096 20.5166 24.5893 20.5166 25.336C20.5166 25.784 20.57 26.104 20.6766 26.296C20.7833 26.4667 20.954 26.552 21.1886 26.552C21.5086 26.552 21.9033 26.232 22.3726 25.592C22.8633 24.952 23.3753 23.9813 23.9086 22.68C24.4633 21.3787 24.9966 19.7787 25.5086 17.88C25.6793 17.24 25.9353 16.7813 26.2766 16.504C26.6393 16.2267 27.1726 16.088 27.8766 16.088C28.3673 16.088 28.7086 16.152 28.9006 16.28C29.0926 16.3867 29.1886 16.6 29.1886 16.92C29.1886 17.4533 28.922 18.9147 28.3886 21.304C27.7913 24.0347 27.4926 25.72 27.4926 26.36C27.4926 26.7653 27.578 27.0853 27.7486 27.32C27.9193 27.5333 28.1433 27.64 28.4206 27.64C28.8473 27.64 29.3486 27.384 29.9246 26.872C30.522 26.3387 31.3113 25.4853 32.2926 24.312C32.5486 24.0133 32.8366 23.864 33.1566 23.864C33.434 23.864 33.6473 23.992 33.7966 24.248C33.9673 24.504 34.0526 24.856 34.0526 25.304C34.0526 26.1573 33.85 26.8187 33.4446 27.288C32.5273 28.4187 31.5353 29.3467 30.4686 30.072C29.4233 30.7973 28.2286 31.16 26.8846 31.16C25.8606 31.16 25.1033 30.7653 24.6126 29.976C24.1433 29.1867 23.9086 28.0773 23.9086 26.648C23.546 28.0987 23.002 29.2187 22.2766 30.008C21.5513 30.776 20.7726 31.16 19.9406 31.16ZM45.7299 23.864C46.0072 23.864 46.2205 23.992 46.3699 24.248C46.5405 24.504 46.6259 24.856 46.6259 25.304C46.6259 26.1573 46.4232 26.8187 46.0179 27.288C45.2285 28.248 44.1085 29.1333 42.6579 29.944C41.2285 30.7547 39.6925 31.16 38.0499 31.16C35.8099 31.16 34.0712 30.552 32.8339 29.336C31.5965 28.12 30.9779 26.456 30.9779 24.344C30.9779 22.872 31.2872 21.5067 31.9059 20.248C32.5245 18.968 33.3779 17.9547 34.4659 17.208C35.5752 16.4613 36.8232 16.088 38.2099 16.088C39.4472 16.088 40.4392 16.4613 41.1859 17.208C41.9325 17.9333 42.3059 18.9253 42.3059 20.184C42.3059 21.656 41.7725 22.9253 40.7059 23.992C39.6605 25.0373 37.8792 25.8693 35.3619 26.488C35.8952 27.4693 36.9085 27.96 38.4019 27.96C39.3619 27.96 40.4499 27.6293 41.6659 26.968C42.9032 26.2853 43.9699 25.4 44.8659 24.312C45.1219 24.0133 45.4099 23.864 45.7299 23.864ZM37.6659 19.224C36.8765 19.224 36.2045 19.6827 35.6499 20.6C35.1165 21.5173 34.8499 22.6267 34.8499 23.928V23.992C36.1085 23.6933 37.1005 23.2453 37.8259 22.648C38.5512 22.0507 38.9139 21.3573 38.9139 20.568C38.9139 20.1627 38.7965 19.8427 38.5619 19.608C38.3485 19.352 38.0499 19.224 37.6659 19.224ZM68.0486 21.272C68.1126 21.2507 68.2193 21.24 68.3686 21.24C68.6886 21.24 68.934 21.3467 69.1046 21.56C69.2753 21.7733 69.3606 22.0613 69.3606 22.424C69.3606 23.0853 69.2326 23.608 68.9766 23.992C68.7206 24.3547 68.3366 24.6213 67.8246 24.792C66.8433 25.112 65.798 25.272 64.6886 25.272C63.75 25.272 62.8646 25.144 62.0326 24.888C61.414 25.8907 60.7313 26.9253 59.9846 27.992C59.1313 29.208 58.3953 30.04 57.7766 30.488C57.1793 30.936 56.4966 31.16 55.7286 31.16C54.8753 31.16 54.2246 30.8293 53.7766 30.168C53.35 29.5067 53.0833 28.4187 52.9766 26.904L52.8166 24.568C52.1553 26.36 51.558 27.7253 51.0246 28.664C50.5126 29.6027 49.99 30.2533 49.4566 30.616C48.9446 30.9787 48.3366 31.16 47.6326 31.16C46.758 31.16 46.0646 30.8187 45.5526 30.136C45.062 29.4533 44.7526 28.376 44.6246 26.904C44.3686 23.9173 44.2406 21.304 44.2406 19.064V17.944C44.262 17.24 44.454 16.7493 44.8166 16.472C45.1793 16.1947 45.7233 16.056 46.4486 16.056C47.0033 16.056 47.4086 16.184 47.6646 16.44C47.942 16.6747 48.0806 17.08 48.0806 17.656C48.0806 20.1093 48.23 23.2987 48.5286 27.224C49.9793 24.1733 51.3126 20.9947 52.5286 17.688C52.7633 17.048 53.0406 16.6213 53.3606 16.408C53.702 16.1733 54.1073 16.056 54.5766 16.056C55.1526 16.056 55.5473 16.1733 55.7606 16.408C55.9953 16.6427 56.1126 17.0587 56.1126 17.656C56.1126 20.1093 56.262 23.2987 56.5606 27.224C57.8406 25.3253 58.8006 23.8107 59.4406 22.68C59.1206 22.0613 58.9606 21.3253 58.9606 20.472C58.9606 19.7467 59.1206 19.0427 59.4406 18.36C59.7606 17.6773 60.198 17.1227 60.7526 16.696C61.3073 16.2693 61.9366 16.056 62.6406 16.056C63.2593 16.056 63.7606 16.28 64.1446 16.728C64.5286 17.1547 64.7206 17.784 64.7206 18.616C64.7206 19.576 64.4646 20.6747 63.9526 21.912C64.7633 21.8693 65.8406 21.7093 67.1846 21.432L68.0486 21.272ZM70.7749 13.976C69.8789 13.976 69.2069 13.7733 68.7589 13.368C68.3109 12.9413 68.0869 12.3547 68.0869 11.608C68.0869 10.8613 68.3749 10.2427 68.9509 9.752C69.5482 9.24 70.2842 8.984 71.1589 8.984C71.9482 8.984 72.5882 9.176 73.0789 9.56C73.5695 9.944 73.8149 10.488 73.8149 11.192C73.8149 12.0453 73.5375 12.728 72.9829 13.24C72.4282 13.7307 71.6922 13.976 70.7749 13.976ZM70.5189 31.16C69.1322 31.16 68.1189 30.6693 67.4789 29.688C66.8602 28.7067 66.5509 27.4053 66.5509 25.784C66.5509 24.824 66.6682 23.5973 66.9029 22.104C67.1589 20.5893 67.4789 19.1813 67.8629 17.88C68.0549 17.1973 68.3109 16.728 68.6309 16.472C68.9509 16.216 69.4629 16.088 70.1669 16.088C71.2549 16.088 71.7989 16.4507 71.7989 17.176C71.7989 17.7093 71.5962 18.9467 71.1909 20.888C70.6789 23.2347 70.4229 24.824 70.4229 25.656C70.4229 26.296 70.5082 26.7867 70.6789 27.128C70.8495 27.4693 71.1375 27.64 71.5429 27.64C71.9269 27.64 72.4069 27.3733 72.9829 26.84C73.5589 26.3067 74.3269 25.464 75.2869 24.312C75.5429 24.0133 75.8309 23.864 76.1509 23.864C76.4282 23.864 76.6415 23.992 76.7909 24.248C76.9615 24.504 77.0469 24.856 77.0469 25.304C77.0469 26.1573 76.8442 26.8187 76.4389 27.288C74.3269 29.8693 72.3535 31.16 70.5189 31.16ZM88.7299 23.864C89.0072 23.864 89.2205 23.992 89.3699 24.248C89.5405 24.504 89.6259 24.856 89.6259 25.304C89.6259 26.1573 89.4232 26.8187 89.0179 27.288C88.1005 28.4187 87.0979 29.3467 86.0099 30.072C84.9219 30.7973 83.6739 31.16 82.2659 31.16C77.9139 31.16 75.7379 28.0987 75.7379 21.976C75.7379 21.0373 75.7699 20.088 75.8339 19.128H74.5859C73.9459 19.128 73.5085 19.0107 73.2739 18.776C73.0605 18.5413 72.9539 18.168 72.9539 17.656C72.9539 16.4613 73.4339 15.864 74.3939 15.864H76.2179C76.5805 13.5173 77.1352 11.3733 77.8819 9.432C78.6285 7.49067 79.5245 5.944 80.5699 4.792C81.6365 3.64 82.7779 3.064 83.9939 3.064C84.8899 3.064 85.5939 3.45867 86.1059 4.248C86.6179 5.03733 86.8739 6.02933 86.8739 7.224C86.8739 10.5307 85.4872 13.4107 82.7139 15.864H86.2979C86.6392 15.864 86.8845 15.9387 87.0339 16.088C87.1832 16.2373 87.2579 16.5147 87.2579 16.92C87.2579 18.392 86.0525 19.128 83.6419 19.128H79.7379C79.6952 20.1947 79.6739 21.0267 79.6739 21.624C79.6739 23.8427 79.9299 25.4 80.4419 26.296C80.9752 27.192 81.8072 27.64 82.9379 27.64C83.8552 27.64 84.6659 27.3627 85.3699 26.808C86.0739 26.2533 86.9059 25.4213 87.8659 24.312C88.1219 24.0133 88.4099 23.864 88.7299 23.864ZM83.1299 6.136C82.8099 6.136 82.4472 6.54133 82.0419 7.352C81.6579 8.14133 81.2845 9.25067 80.9219 10.68C80.5805 12.088 80.2925 13.656 80.0579 15.384C81.3165 14.296 82.2552 13.08 82.8739 11.736C83.5139 10.3707 83.8339 9.13333 83.8339 8.024C83.8339 6.76533 83.5992 6.136 83.1299 6.136ZM104.78 23.864C105.058 23.864 105.271 23.992 105.42 24.248C105.591 24.504 105.676 24.856 105.676 25.304C105.676 26.1573 105.474 26.8187 105.068 27.288C104.087 28.4187 103.074 29.3467 102.028 30.072C101.004 30.7973 99.831 31.16 98.5084 31.16C97.4204 31.16 96.599 30.8507 96.0444 30.232C95.4897 29.592 95.2124 28.6747 95.2124 27.48C95.2124 26.8827 95.3617 25.816 95.6604 24.28C95.9377 22.936 96.0764 22.008 96.0764 21.496C96.0764 21.1547 95.959 20.984 95.7244 20.984C95.447 20.984 95.0524 21.3467 94.5404 22.072C94.0284 22.776 93.5164 23.7147 93.0044 24.888C92.4924 26.0613 92.0764 27.2987 91.7564 28.6C91.351 30.3067 90.3484 31.16 88.7484 31.16C88.1084 31.16 87.6817 30.936 87.4684 30.488C87.2764 30.0187 87.1804 29.1867 87.1804 27.992C87.1804 27.3093 87.191 26.7653 87.2124 26.36L87.2444 23.8C87.2444 20.5147 87.575 17.0907 88.2364 13.528C88.919 9.96533 89.911 6.97867 91.2124 4.568C92.535 2.136 94.1137 0.919998 95.9484 0.919998C96.9297 0.919998 97.719 1.34667 98.3164 2.2C98.935 3.032 99.2444 4.12 99.2444 5.464C99.2444 7.61867 98.615 9.85867 97.3564 12.184C96.0977 14.488 94.0497 17.1867 91.2124 20.28C91.1484 21.3893 91.1164 22.5307 91.1164 23.704C91.8204 21.8907 92.599 20.4187 93.4524 19.288C94.327 18.136 95.1804 17.3147 96.0124 16.824C96.8657 16.3333 97.6444 16.088 98.3484 16.088C99.735 16.088 100.428 16.7813 100.428 18.168C100.428 19 100.194 20.504 99.7244 22.68C99.319 24.536 99.1164 25.7627 99.1164 26.36C99.1164 27.2133 99.4257 27.64 100.044 27.64C100.471 27.64 100.972 27.384 101.548 26.872C102.146 26.3387 102.935 25.4853 103.916 24.312C104.172 24.0133 104.46 23.864 104.78 23.864ZM95.2764 4.088C94.8924 4.088 94.4657 4.64267 93.9964 5.752C93.527 6.84 93.0684 8.32267 92.6204 10.2C92.1937 12.056 91.8417 14.0827 91.5644 16.28C92.887 14.7227 93.975 13.0267 94.8284 11.192C95.703 9.35733 96.1404 7.69333 96.1404 6.2C96.1404 5.51733 96.0657 4.99467 95.9164 4.632C95.767 4.26933 95.5537 4.088 95.2764 4.088ZM106.347 31.16C105.387 31.16 104.598 30.7227 103.979 29.848C103.382 28.952 103.083 27.8427 103.083 26.52C103.083 24.92 103.19 23.4587 103.403 22.136C103.616 20.792 103.968 19.3733 104.459 17.88C104.672 17.24 104.971 16.7813 105.355 16.504C105.739 16.2267 106.347 16.088 107.179 16.088C107.648 16.088 107.968 16.1627 108.139 16.312C108.331 16.4613 108.427 16.6853 108.427 16.984C108.427 17.1547 108.31 17.7307 108.075 18.712C107.862 19.5013 107.691 20.216 107.563 20.856C107.136 23.096 106.923 24.5893 106.923 25.336C106.923 25.784 106.976 26.104 107.083 26.296C107.19 26.4667 107.36 26.552 107.595 26.552C107.915 26.552 108.31 26.232 108.779 25.592C109.27 24.952 109.782 23.9813 110.315 22.68C110.87 21.3787 111.403 19.7787 111.915 17.88C112.086 17.24 112.342 16.7813 112.683 16.504C113.046 16.2267 113.579 16.088 114.283 16.088C114.774 16.088 115.115 16.152 115.307 16.28C115.499 16.3867 115.595 16.6 115.595 16.92C115.595 17.4533 115.328 18.9147 114.795 21.304C114.198 24.0347 113.899 25.72 113.899 26.36C113.899 26.7653 113.984 27.0853 114.155 27.32C114.326 27.5333 114.55 27.64 114.827 27.64C115.254 27.64 115.755 27.384 116.331 26.872C116.928 26.3387 117.718 25.4853 118.699 24.312C118.955 24.0133 119.243 23.864 119.563 23.864C119.84 23.864 120.054 23.992 120.203 24.248C120.374 24.504 120.459 24.856 120.459 25.304C120.459 26.1573 120.256 26.8187 119.851 27.288C118.934 28.4187 117.942 29.3467 116.875 30.072C115.83 30.7973 114.635 31.16 113.291 31.16C112.267 31.16 111.51 30.7653 111.019 29.976C110.55 29.1867 110.315 28.0773 110.315 26.648C109.952 28.0987 109.408 29.2187 108.683 30.008C107.958 30.776 107.179 31.16 106.347 31.16ZM123.816 31.864C122.707 31.864 121.853 31.608 121.256 31.096C120.68 30.584 120.392 30.008 120.392 29.368C120.392 28.8133 120.595 28.3333 121 27.928C121.405 27.5227 122.003 27.32 122.792 27.32C123.069 27.32 123.389 27.352 123.752 27.416C124.136 27.4587 124.424 27.4907 124.616 27.512C124.595 26.9573 124.467 26.4347 124.232 25.944C124.019 25.4533 123.741 24.984 123.4 24.536C123.059 24.0667 122.739 23.6613 122.44 23.32C121.779 24.5787 121.117 25.624 120.456 26.456C119.816 27.288 119.112 28.0773 118.344 28.824C117.96 29.208 117.555 29.4 117.128 29.4C116.787 29.4 116.509 29.2827 116.296 29.048C116.083 28.792 115.976 28.4827 115.976 28.12C115.976 27.6933 116.125 27.2987 116.424 26.936L116.84 26.424C118.013 24.9733 118.899 23.7787 119.496 22.84C119.88 22.2213 120.264 21.4853 120.648 20.632C121.053 19.7787 121.576 18.616 122.216 17.144C122.621 16.2053 123.464 15.736 124.744 15.736C125.341 15.736 125.757 15.7893 125.992 15.896C126.227 16.0027 126.344 16.1733 126.344 16.408C126.344 16.536 126.301 16.7387 126.216 17.016C126.131 17.2933 126.013 17.5707 125.864 17.848C125.48 18.616 125.288 19.2667 125.288 19.8C125.288 20.12 125.395 20.472 125.608 20.856C125.843 21.24 126.195 21.72 126.664 22.296C127.347 23.192 127.859 23.96 128.2 24.6C128.563 25.2187 128.744 25.9013 128.744 26.648C128.744 27.544 128.531 28.3973 128.104 29.208C127.699 29.9973 127.123 30.6373 126.376 31.128C125.629 31.6187 124.776 31.864 123.816 31.864Z" fill="#F47F28"/>
</svg>
