<svg width="641" height="489" viewBox="0 0 641 489" fill="none" xmlns="http://www.w3.org/2000/svg">
<g opacity="0.75" clip-path="url(#clip0)">
<path d="M222.107 476.239L228.405 478.126L238.677 454.725L229.383 451.94L222.107 476.239Z" fill="#FFB8B8"/>
<path d="M221.116 473.701L233.519 477.417L233.519 477.417C235.615 478.045 237.376 479.481 238.414 481.408C239.452 483.334 239.683 485.595 239.055 487.692L238.978 487.949L218.672 481.865L221.116 473.701Z" fill="#2D2222"/>
<path d="M281.955 481.386L288.128 479.123L282.336 454.23L273.227 457.571L281.955 481.386Z" fill="#FFB8B8"/>
<path d="M279.642 479.948L291.797 475.489L291.798 475.489C293.852 474.736 296.122 474.83 298.107 475.75C300.092 476.671 301.631 478.342 302.384 480.397L302.476 480.649L282.574 487.949L279.642 479.948Z" fill="#2D2222"/>
<path d="M232.667 433.877L221.942 469.28L234.811 473.035L247.145 440.313L232.667 433.877Z" fill="#2D2222"/>
<path d="M266.449 441.923L276.102 475.18L289.507 468.743L279.855 437.632L266.449 441.923Z" fill="#2D2222"/>
<path d="M261.426 447.921C252.842 447.882 244.278 447.092 235.831 445.56L235.616 445.516V437.335L230.715 436.79L234.54 423.123C232.757 402.067 235.291 375.401 236.111 367.726C236.299 365.926 236.422 364.916 236.422 364.916L240.724 328.343L247.921 321.697L251.19 323.825L257.255 329.892C264.304 347.247 269.898 363.585 269.934 364.635L293.575 440.42L293.416 440.533C285.207 446.329 272.693 447.921 261.426 447.921Z" fill="#FF6583"/>
<path opacity="0.2" d="M243.773 344.565L242.12 354.886L253.311 359.504L243.773 344.565Z" fill="#2D2222"/>
<path d="M265.732 321.643H239.858C239.326 321.642 238.816 321.431 238.439 321.054C238.063 320.678 237.851 320.167 237.851 319.635V308.479C237.858 304.519 239.436 300.724 242.238 297.927C245.04 295.13 248.837 293.559 252.795 293.559C256.753 293.559 260.55 295.13 263.352 297.927C266.154 300.724 267.732 304.519 267.739 308.479V319.635C267.739 320.167 267.527 320.678 267.151 321.054C266.774 321.431 266.264 321.642 265.732 321.643Z" fill="#2D2222"/>
<path d="M255.652 320.971C261.703 320.971 266.609 316.064 266.609 310.011C266.609 303.958 261.703 299.05 255.652 299.05C249.601 299.05 244.695 303.958 244.695 310.011C244.695 316.064 249.601 320.971 255.652 320.971Z" fill="#FFB8B8"/>
<path d="M271.275 309.594H255.454L255.292 307.322L254.481 309.594H252.044L251.723 305.091L250.115 309.594H245.401V309.371C245.405 306.236 246.651 303.23 248.868 301.013C251.084 298.796 254.089 297.549 257.223 297.546H259.453C262.588 297.549 265.593 298.796 267.809 301.013C270.025 303.23 271.272 306.236 271.275 309.371V309.594Z" fill="#2D2222"/>
<path d="M255.324 323.726C255.205 323.725 255.086 323.715 254.969 323.694L243.384 321.649V302.497H256.137L255.821 302.865C251.428 307.99 254.738 316.3 257.101 320.797C257.276 321.126 257.353 321.498 257.325 321.87C257.298 322.242 257.165 322.598 256.944 322.898C256.759 323.154 256.515 323.363 256.234 323.507C255.952 323.65 255.64 323.726 255.324 323.726Z" fill="#2D2222"/>
<path d="M275.766 370.019H269.416C269.212 370.02 269.015 369.945 268.865 369.808C268.714 369.671 268.619 369.482 268.6 369.279L267.329 356.247H277.853L276.582 369.279C276.563 369.482 276.468 369.671 276.317 369.808C276.167 369.945 275.97 370.02 275.766 370.019Z" fill="#DCDCDC"/>
<path d="M277.836 357.886H267.346C267.129 357.886 266.92 357.8 266.767 357.646C266.613 357.492 266.527 357.284 266.526 357.066V355.099C266.527 354.881 266.613 354.673 266.767 354.519C266.92 354.366 267.129 354.279 267.346 354.279H277.836C278.053 354.279 278.262 354.366 278.415 354.519C278.569 354.673 278.655 354.881 278.656 355.099V357.066C278.655 357.284 278.569 357.492 278.415 357.646C278.262 357.8 278.053 357.886 277.836 357.886Z" fill="#2D2222"/>
<path opacity="0.2" d="M236.688 364.412C239.605 367.789 243.56 370.102 247.933 370.986C252.306 371.87 256.849 371.276 260.847 369.297L263.232 368.116L236.688 364.412Z" fill="#2D2222"/>
<path d="M274.815 361.889C274.326 361.339 273.723 360.904 273.048 360.613C272.373 360.322 271.642 360.183 270.907 360.205C270.173 360.228 269.452 360.411 268.795 360.742C268.139 361.073 267.563 361.544 267.108 362.122L256.046 359.015L252.519 365.279L268.203 369.447C269.224 370.147 270.466 370.448 271.694 370.293C272.922 370.138 274.05 369.538 274.865 368.606C275.68 367.674 276.125 366.476 276.116 365.238C276.107 364 275.644 362.808 274.815 361.889Z" fill="#FFB8B8"/>
<path d="M248.415 368.841C243.155 368.841 236.039 365.756 227.59 359.781C227.12 359.455 226.722 359.035 226.422 358.546C226.122 358.058 225.927 357.513 225.848 356.945C225.225 352.996 229.076 347.657 229.454 347.146L233.502 336.025C233.548 335.844 234.853 331.033 238.128 329.321C238.818 328.967 239.576 328.767 240.35 328.734C241.124 328.701 241.896 328.836 242.614 329.13C248.852 331.402 243.981 348.95 243.312 351.251L251.577 355.142L256.826 358.489L264.014 359.241L262.062 368.276L251.146 368.522C250.252 368.74 249.335 368.848 248.415 368.841Z" fill="#FF6583"/>
<path d="M640.765 286.421C640.759 275.863 638.406 265.439 633.875 255.903C629.345 246.367 622.75 237.959 614.57 231.288C606.39 224.617 596.828 219.849 586.579 217.331C576.329 214.813 565.648 214.607 555.308 216.728C544.969 218.849 535.231 223.244 526.8 229.595C518.369 235.947 511.455 244.094 506.561 253.448C501.666 262.802 498.913 273.128 498.501 283.678C498.088 294.227 500.027 304.737 504.177 314.445C504.107 314.367 504.035 314.292 503.966 314.214C507.126 321.583 511.508 328.366 516.926 334.276C516.942 334.294 516.959 334.311 516.975 334.329C517.412 334.805 517.852 335.279 518.302 335.744C524.804 342.529 532.59 347.953 541.206 351.704C549.821 355.454 559.096 357.454 568.491 357.589L566.087 488.235H573.515L572.012 402.008L582.758 396.348L581.119 393.233L571.943 398.066L571.237 357.583C589.822 357.157 607.502 349.472 620.496 336.173C633.49 322.874 640.765 305.017 640.765 286.421Z" fill="#00C2FF"/>
<path d="M429.562 251.727C429.556 239.354 426.798 227.137 421.488 215.962C416.179 204.787 408.451 194.934 398.864 187.116C389.278 179.297 378.073 173.71 366.061 170.759C354.049 167.808 341.531 167.566 329.415 170.052C317.298 172.538 305.886 177.689 296.005 185.132C286.125 192.575 278.023 202.123 272.287 213.085C266.551 224.047 263.324 236.148 262.841 248.512C262.358 260.875 264.63 273.191 269.493 284.568C269.411 284.477 269.327 284.389 269.246 284.298C272.95 292.934 278.085 300.882 284.434 307.808C284.453 307.829 284.473 307.849 284.492 307.87C285.004 308.429 285.519 308.985 286.046 309.529C293.667 317.48 302.791 323.837 312.888 328.232C322.985 332.627 333.854 334.972 344.864 335.13L342.046 488.235H350.752L348.99 387.184L361.583 380.552L359.662 376.902L348.909 382.564L348.082 335.122C369.862 334.623 390.582 325.617 405.809 310.032C421.036 294.447 429.562 273.519 429.562 251.727Z" fill="#FFE600"/>
<path d="M190.032 219.093C190.025 205.013 186.886 191.111 180.844 178.394C174.802 165.677 166.008 154.464 155.099 145.567C144.189 136.67 131.438 130.312 117.769 126.954C104.1 123.595 89.8547 123.321 76.0663 126.15C62.2778 128.978 49.2912 134.84 38.0471 143.31C26.8031 151.78 17.5834 162.646 11.0559 175.12C4.52847 187.595 0.856765 201.366 0.306838 215.435C-0.243089 229.504 2.34254 243.52 7.87638 256.466C7.78359 256.363 7.6877 256.262 7.59536 256.159C11.8105 265.986 17.6539 275.031 24.8793 282.913C24.9008 282.937 24.923 282.96 24.9446 282.984C25.5276 283.619 26.1139 284.251 26.7138 284.871C35.3859 293.919 45.7685 301.154 57.2587 306.155C68.7488 311.156 81.1177 313.824 93.6472 314.005L90.4405 488.235H100.348L98.3425 373.241L112.673 365.694L110.487 361.54L98.2508 367.984L97.3094 313.996C122.094 313.427 145.673 303.179 163.001 285.444C180.33 267.708 190.032 243.893 190.032 219.093Z" fill="#FF005C"/>
<path d="M546.211 124.163C580.486 124.163 608.272 96.3684 608.272 62.0817C608.272 27.7949 580.486 0 546.211 0C511.935 0 484.149 27.7949 484.149 62.0817C484.149 96.3684 511.935 124.163 546.211 124.163Z" fill="#F47F28"/>
<path d="M177.256 259.898C245.95 259.898 301.638 204.192 301.638 135.475C301.638 66.7575 245.95 11.0512 177.256 11.0512C108.561 11.0512 52.873 66.7575 52.873 135.475C52.873 204.192 108.561 259.898 177.256 259.898Z" fill="#F47F28"/>
<path opacity="0.2" d="M85.4158 52.3695C73.8137 79.5178 72.2398 109.908 80.9754 138.111C89.7109 166.313 108.187 190.489 133.101 206.319C158.016 222.149 187.745 228.601 216.978 224.523C246.21 220.444 273.04 206.101 292.674 184.056C285.587 200.642 274.979 215.489 261.586 227.567C248.193 239.646 232.335 248.667 215.111 254.006C197.887 259.345 179.708 260.875 161.834 258.488C143.961 256.102 126.819 249.856 111.598 240.185C96.3764 230.514 83.4389 217.648 73.6817 202.479C63.9246 187.309 57.581 170.199 55.0905 152.334C52.6001 134.468 54.0223 116.275 59.2586 99.0141C64.4949 81.7532 73.4201 65.8374 85.4158 52.3695Z" fill="#2D2222"/>
<path d="M177.598 135.474H177.94L184.091 488.235H171.105L177.598 135.474Z" fill="#50563D"/>
<path d="M197.38 322.177L176.819 333.005L179.685 338.45L200.246 327.621L197.38 322.177Z" fill="#50563D"/>
<path d="M367.503 484.936C367.503 484.936 367.952 475.529 377.151 476.623L367.503 484.936Z" fill="#50563D"/>
<path d="M364.904 475.984C367.447 475.984 369.509 473.922 369.509 471.378C369.509 468.835 367.447 466.773 364.904 466.773C362.361 466.773 360.3 468.835 360.3 471.378C360.3 473.922 362.361 475.984 364.904 475.984Z" fill="#DCDCDC"/>
<path d="M365.454 479.135H364.154V488.235H365.454V479.135Z" fill="#50563D"/>
<path d="M48.4238 483.636C48.4238 483.636 48.8726 474.229 58.0723 475.323L48.4238 483.636Z" fill="#50563D"/>
<path d="M45.8241 474.684C48.3671 474.684 50.4285 472.622 50.4285 470.078C50.4285 467.535 48.3671 465.472 45.8241 465.472C43.2812 465.472 41.2197 467.535 41.2197 470.078C41.2197 472.622 43.2812 474.684 45.8241 474.684Z" fill="#DCDCDC"/>
<path d="M46.3749 477.834H45.0752V486.935H46.3749V477.834Z" fill="#50563D"/>
<path d="M123.807 484.286C123.807 484.286 124.255 474.879 133.455 475.973L123.807 484.286Z" fill="#50563D"/>
<path d="M121.208 475.334C123.751 475.334 125.812 473.272 125.812 470.728C125.812 468.185 123.751 466.122 121.208 466.122C118.665 466.122 116.604 468.185 116.604 470.728C116.604 473.272 118.665 475.334 121.208 475.334Z" fill="#DCDCDC"/>
<path d="M121.758 478.484H120.458V487.585H121.758V478.484Z" fill="#50563D"/>
<path d="M324.285 60.1485L333.52 52.7591C326.345 51.9673 323.397 55.8816 322.191 58.9799C316.586 56.6515 310.483 59.7029 310.483 59.7029L328.963 66.4138C328.03 63.9229 326.408 61.7496 324.285 60.1485Z" fill="#3F3D56"/>
<path d="M464.745 135.419L473.98 128.03C466.805 127.238 463.857 131.153 462.651 134.251C457.045 131.922 450.943 134.974 450.943 134.974L469.423 141.685C468.49 139.194 466.868 137.02 464.745 135.419Z" fill="#3F3D56"/>
<path d="M313.248 199.651L322.484 192.261C315.309 191.469 312.361 195.384 311.155 198.482C305.549 196.154 299.447 199.205 299.447 199.205L317.927 205.916C316.994 203.425 315.372 201.252 313.248 199.651Z" fill="#3F3D56"/>
<path d="M493.494 488.35C493.494 488.35 493.943 478.944 503.143 480.037L493.494 488.35Z" fill="#50563D"/>
<path d="M407.063 488.35C407.063 488.35 407.512 478.944 416.712 480.037L407.063 488.35Z" fill="#50563D"/>
<path d="M91.8828 488.35C91.8828 488.35 92.3316 478.944 101.531 480.037L91.8828 488.35Z" fill="#50563D"/>
<path d="M532.486 488.35C532.486 488.35 532.935 478.944 542.135 480.037L532.486 488.35Z" fill="#50563D"/>
<path d="M514.29 488.35C514.29 488.35 514.739 478.944 523.939 480.037L514.29 488.35Z" fill="#50563D"/>
<path d="M476.755 488.35C476.755 488.35 476.306 478.944 467.106 480.037L476.755 488.35Z" fill="#50563D"/>
<path d="M327.287 488.35C327.287 488.35 326.838 478.944 317.639 480.037L327.287 488.35Z" fill="#50563D"/>
<path d="M203.165 488.35C203.165 488.35 202.716 478.944 193.517 480.037L203.165 488.35Z" fill="#50563D"/>
<path d="M71.2442 488.35C71.2442 488.35 70.7954 478.944 61.5957 480.037L71.2442 488.35Z" fill="#50563D"/>
<path d="M571.634 488.35C571.634 488.35 571.185 478.944 561.985 480.037L571.634 488.35Z" fill="#50563D"/>
<path d="M515.746 489C515.746 489 515.297 479.594 506.098 480.687L515.746 489Z" fill="#50563D"/>
<path d="M641 487.12H0V488.564H641V487.12Z" fill="#50563D"/>
</g>
<defs>
<clipPath id="clip0">
<rect width="641" height="489" fill="white"/>
</clipPath>
</defs>
</svg>
